<?xml version="1.0" standalone="no"?>
<!DOCTYPE svg PUBLIC "-//W3C//DTD SVG 20010904//EN"
 "http://www.w3.org/TR/2001/REC-SVG-20010904/DTD/svg10.dtd">
<svg version="1.0" xmlns="http://www.w3.org/2000/svg"
 width="2064.000000pt" height="2048.000000pt" viewBox="0 0 2064.000000 2048.000000"
 preserveAspectRatio="xMidYMid meet">

<g transform="translate(0.000000,2048.000000) scale(0.100000,-0.100000)"
fill="#000000" stroke="none">
<path d="M9385 19740 c-27 -11 -61 -49 -74 -83 -6 -16 -11 -103 -11 -201 0
-146 -3 -176 -16 -187 -8 -7 -25 -31 -37 -53 -20 -37 -22 -58 -25 -238 l-4
-198 -152 0 c-202 0 -250 -17 -304 -110 -23 -38 -27 -59 -30 -142 l-4 -98
-1457 0 c-1443 0 -1456 0 -1489 -20 -48 -30 -62 -72 -62 -190 0 -118 14 -160
62 -190 33 -20 46 -20 1491 -20 l1457 0 0 -100 0 -100 -1447 0 c-1388 0 -1450
-1 -1489 -19 -59 -27 -74 -65 -74 -190 0 -114 12 -156 55 -189 l28 -22 1462 0
1462 0 5 -79 c6 -100 37 -158 106 -198 45 -27 52 -28 215 -32 l167 -3 0 -182
c0 -99 5 -198 11 -219 23 -85 112 -148 214 -152 l60 -2 5 -64 c3 -35 13 -79
23 -97 21 -39 71 -72 109 -72 15 0 29 -4 32 -8 2 -4 21 -105 41 -222 21 -126
45 -233 57 -258 37 -79 132 -132 235 -132 l43 0 0 -125 0 -124 53 -59 c143
-160 234 -252 248 -252 16 0 277 269 297 307 7 13 12 69 12 137 l0 116 38 0
c93 0 201 60 238 132 11 22 64 257 64 285 0 2 33 3 74 3 73 0 75 1 87 29 9 20
16 26 21 18 6 -9 8 -9 8 1 0 8 5 10 13 6 10 -6 10 -4 0 7 -19 19 -16 28 7 22
11 -3 17 -10 13 -17 -3 -6 0 -6 8 2 19 18 29 15 29 -10 1 -23 1 -23 16 -3 11
13 18 16 21 8 2 -7 11 -9 19 -6 7 3 11 10 8 17 -3 6 3 1 13 -12 13 -16 24 -21
37 -16 16 6 18 4 13 -18 l-7 -25 167 -6 c239 -10 341 -9 323 3 -10 6 -11 10
-2 10 6 0 12 5 12 11 0 6 -9 8 -22 4 -21 -5 -21 -5 -5 5 18 11 18 13 -2 31
-11 11 -24 18 -28 17 -4 -1 -18 3 -31 10 -12 7 -27 10 -32 7 -5 -3 -11 -1 -15
4 -3 6 -12 8 -20 4 -8 -3 -15 0 -15 6 0 6 -7 8 -17 4 -13 -5 -15 -2 -11 15 l6
21 -319 1 c-211 0 -319 -3 -320 -10 -2 -13 -4 -21 -12 -40 -3 -8 -8 -22 -11
-30 -6 -17 3 76 10 102 3 9 18 20 35 23 36 8 85 48 104 86 9 16 15 56 15 94
l0 65 32 0 c48 0 114 44 145 98 28 47 28 49 31 250 l3 202 134 0 c171 0 225
11 278 59 55 49 77 101 77 184 l0 67 1460 0 c1277 0 1465 2 1490 15 54 28 60
47 60 190 0 153 -12 186 -77 204 -26 8 -500 11 -1485 11 l-1448 0 0 100 0 100
1471 2 1471 3 34 37 34 38 0 133 c0 145 -6 164 -60 192 -25 13 -213 15 -1490
15 l-1460 0 0 76 c0 109 -16 160 -64 209 -56 56 -96 65 -275 65 l-151 0 0 183
c0 201 -7 242 -51 291 l-29 34 0 176 c0 193 -7 226 -55 264 l-28 22 -916 -1
c-504 0 -925 -4 -936 -9z m848 -90 l67 0 0 -158 0 -159 -146 -7 c-80 -3 -150
-4 -155 0 -11 6 -12 317 -1 328 4 5 43 6 87 2 44 -3 110 -6 148 -6z m-333 -30
l0 -30 -184 0 c-154 0 -187 -3 -200 -16 -13 -12 -16 -39 -16 -129 l0 -113 -45
-4 -45 -3 0 150 c0 104 4 155 12 163 9 9 77 12 245 12 l233 0 0 -30z m580
-400 c80 -3 133 -7 119 -8 -21 -2 -26 -7 -25 -24 0 -13 9 -26 21 -30 11 -3
-237 -6 -551 -7 -562 -1 -572 -1 -598 -22 -26 -20 -26 -22 -26 -150 l0 -129
-46 0 -45 0 3 154 c3 137 5 156 23 176 43 49 51 49 530 48 248 0 515 -4 595
-8z m-630 -1156 l0 -686 -21 5 c-15 4 -19 2 -15 -9 10 -25 -3 -15 -19 16 -11
22 -15 63 -15 168 0 173 -7 237 -26 221 -19 -16 -114 -39 -114 -28 0 6 -6 7
-12 2 -17 -10 -39 -10 -59 -1 -9 4 -38 8 -65 9 -27 1 -51 6 -54 9 -3 4 -15 10
-27 14 l-23 7 0 -124 c0 -137 -8 -219 -21 -211 -5 3 -17 0 -27 -5 -17 -9 -20
-6 -26 36 -3 25 -6 320 -6 654 l0 609 265 0 265 0 0 -686z m520 -99 l0 -785
-207 2 -208 3 -3 783 -2 782 210 0 210 0 0 -785z m290 0 l0 -786 -92 3 -93 3
-3 768 c-2 423 -1 775 2 783 4 11 27 14 96 14 l90 0 0 -785z m640 228 c0 -544
-7 -853 -19 -835 -3 5 -16 12 -27 16 -21 6 -22 15 -29 177 -4 94 -10 167 -14
161 -4 -7 -19 -8 -43 -3 -20 5 -40 6 -43 3 -8 -9 -49 -9 -55 0 -3 4 -37 9 -75
11 -86 6 -138 17 -147 31 -4 6 -8 -20 -9 -59 -4 -195 -14 -330 -26 -331 -7 -1
-16 -2 -20 -3 -3 0 2 -10 12 -21 18 -20 18 -21 0 -14 -13 5 -16 4 -11 -4 4 -7
14 -12 22 -12 8 0 14 -4 14 -10 0 -27 -58 18 -60 46 -1 11 -4 331 -7 712 l-4
692 270 0 271 0 0 -557z m-2082 445 l3 -38 -135 0 c-171 0 -175 -3 -177 -115
-1 -41 -3 -79 -4 -85 -1 -5 -3 -88 -4 -182 -1 -123 -5 -168 -12 -155 -5 9 -18
17 -29 17 -16 0 -19 12 -25 113 -4 61 -5 177 -4 257 6 219 18 231 244 227
l140 -2 3 -37z m2502 24 c58 -29 70 -66 70 -222 0 -74 -3 -185 -7 -247 l-6
-111 -26 2 -26 3 -6 239 c-3 131 -6 240 -7 241 -1 1 -15 9 -32 18 -21 11 -62
15 -155 15 l-125 0 0 40 0 40 143 0 c115 0 149 -3 177 -18z m-2538 -174 c13
-21 9 -66 -8 -82 -12 -13 -39 -16 -125 -16 -107 0 -110 0 -121 25 -19 42 0 79
42 85 63 9 203 1 212 -12z m2498 6 c6 -6 10 -31 8 -55 l-3 -44 -130 0 -130 0
-3 45 c-2 30 1 48 11 55 19 14 233 13 247 -1z m-2950 -214 l0 -50 -247 0
c-235 -1 -454 -1 -2015 0 l-648 0 0 43 c0 24 3 47 7 50 3 4 658 7 1455 7
l1448 0 0 -50z m6078 -2 l3 -48 -163 -1 c-361 -1 -2742 1 -2744 4 -1 1 -5 23
-9 50 l-7 47 1458 -2 1459 -3 3 -47z m-6328 -139 l0 -29 -1314 0 c-1182 0
-1316 2 -1330 16 -47 46 -103 44 1314 44 l1330 -1 0 -30z m6318 3 l-3 -27
-1322 -3 -1323 -2 0 25 c0 24 2 24 83 27 45 2 641 4 1325 5 l1243 2 -3 -27z
m-6068 -481 l0 -49 -252 -6 c-139 -4 -793 -6 -1453 -4 l-1200 3 -3 39 c-2 21
-1 44 2 52 5 12 224 14 1456 14 l1450 0 0 -49z m6080 -7 l0 -55 -1449 3 c-797
2 -1452 6 -1455 9 -3 3 -9 27 -12 52 l-7 47 1462 0 1461 0 0 -56z m-6330 -134
l0 -30 -1322 2 -1323 3 -3 28 -3 27 1325 0 1326 0 0 -30z m6320 0 l0 -30
-1325 0 -1325 0 0 30 0 30 1325 0 1325 0 0 -30z m-3790 -254 c0 -2 -8 -10 -17
-17 -16 -13 -17 -12 -4 4 13 16 21 21 21 13z m54 -38 c7 -5 5 -8 -6 -8 -13 0
-18 7 -17 28 1 21 2 22 6 7 3 -11 10 -23 17 -27z m-107 15 c-14 -4 -15 -8 -7
-18 9 -11 7 -12 -10 -8 -16 4 -18 8 -9 19 6 8 19 13 28 13 13 -1 13 -2 -2 -6z
m37 -21 c3 -5 -1 -9 -9 -9 -8 0 -15 4 -15 9 0 4 4 8 9 8 6 0 12 -4 15 -8z
m-1324 -28 c0 -2 -21 -4 -47 -3 -37 1 -42 3 -23 8 24 7 70 3 70 -5z m1345 6
c-3 -5 -23 -9 -43 -9 l-37 2 40 7 c22 4 41 8 43 9 2 0 0 -3 -3 -9z m115 -6 c0
-2 -21 -4 -47 -4 -27 0 -43 4 -36 8 12 8 83 4 83 -4z m-1423 0 c-3 -3 -12 -4
-19 -1 -8 3 -5 6 6 6 11 1 17 -2 13 -5z m-297 -278 c0 -150 2 -165 21 -190
l20 -26 285 0 284 0 0 -35 0 -35 -300 0 c-334 0 -344 2 -374 64 -13 27 -16 68
-16 210 l0 176 40 0 40 0 0 -164z m1108 -58 c8 -8 12 -49 12 -120 l0 -108
-210 0 -210 0 0 113 c0 63 3 117 7 120 12 13 388 8 401 -5z m50 -338 l512 0 0
-55 c0 -43 -4 -56 -19 -65 -13 -7 -256 -10 -720 -10 -682 0 -701 1 -711 19 -5
11 -10 40 -10 65 l0 45 138 4 c75 2 173 2 217 1 44 -2 311 -4 593 -4z m-639
-277 c6 -27 22 -111 36 -187 14 -77 33 -153 42 -169 33 -55 82 -72 226 -75 92
-3 127 -7 124 -15 -3 -9 -62 -13 -205 -14 l-200 -3 -31 26 c-18 14 -36 35 -43
47 -6 11 -27 111 -48 221 l-37 201 56 6 c31 3 59 6 63 7 3 1 11 -19 17 -45z
m1496 -134 c-4 -5 -12 -9 -18 -8 -9 0 -8 2 1 6 6 2 9 10 6 15 -4 7 -2 8 5 4 6
-4 9 -12 6 -17z m-875 -545 l0 -107 -77 -76 c-67 -66 -69 -67 -13 -9 35 37 60
68 55 68 -6 0 -2 5 8 11 16 9 18 24 16 110 l-1 99 -62 -6 c-33 -3 -68 -6 -77
-6 -15 1 -17 -21 -21 -181 -3 -100 -8 -190 -13 -200 -7 -16 -22 -5 -106 79
l-99 99 0 112 0 113 195 0 195 0 0 -106z"/>
<path d="M10807 17395 c-4 -8 -2 -17 3 -20 6 -4 10 3 10 14 0 25 -6 27 -13 6z"/>
<path d="M12578 16073 c7 -3 16 -2 19 1 4 3 -2 6 -13 5 -11 0 -14 -3 -6 -6z"/>
<path d="M11326 15898 c-44 -107 -125 -322 -123 -324 1 -1 81 -16 177 -34 587
-105 1083 -301 1550 -613 173 -115 263 -184 430 -328 337 -290 620 -628 827
-989 263 -457 438 -942 522 -1448 17 -101 31 -188 31 -193 0 -6 4 -8 9 -4 5 3
12 1 16 -5 3 -5 12 -10 18 -10 7 0 6 4 -3 10 -11 7 -12 10 -2 10 8 0 25 -13
39 -28 18 -21 31 -28 49 -24 13 2 21 8 18 13 -3 5 2 6 10 3 8 -3 12 -12 9 -20
-3 -8 0 -14 5 -14 35 0 17 231 -39 506 -139 679 -463 1354 -904 1884 -44 52
-135 152 -204 223 -68 70 -118 127 -112 127 7 0 10 4 7 9 -4 5 4 7 16 4 18 -4
20 -3 8 6 -13 9 -10 15 18 41 19 17 38 27 44 24 6 -4 8 -2 4 4 -3 6 3 17 13
24 19 14 17 17 -47 80 -74 72 -183 163 -342 285 -461 354 -1087 642 -1660 762
-105 22 -329 61 -352 61 -8 0 -23 -19 -32 -42z"/>
<path d="M13488 15807 c-93 -39 -168 -74 -168 -78 0 -4 24 -22 53 -39 77 -48
278 -192 387 -278 352 -279 739 -678 1006 -1037 355 -478 601 -920 826 -1485
111 -280 169 -462 264 -837 14 -56 22 -73 36 -73 13 0 18 -8 18 -29 l0 -30 65
2 c47 1 64 5 61 14 -3 7 1 10 8 7 18 -7 68 14 61 26 -4 6 1 7 11 3 12 -4 15
-3 10 5 -4 7 -2 12 6 12 8 0 9 3 3 8 -16 12 -15 44 2 38 8 -3 11 -2 8 3 -3 5
-1 12 5 16 6 4 7 11 4 17 -4 7 -2 8 4 4 16 -10 15 -1 -14 126 -66 286 -195
686 -309 958 -157 373 -412 844 -625 1150 -392 566 -737 943 -1200 1315 -183
147 -330 255 -345 254 -5 0 -85 -32 -177 -72z m2672 -3707 c0 -5 -8 -10 -17
-10 -15 0 -16 2 -3 10 19 12 20 12 20 0z"/>
<path d="M11361 15221 c-32 -120 -51 -201 -51 -214 0 -10 17 -17 56 -22 209
-26 596 -160 894 -309 385 -193 779 -498 1051 -813 386 -447 632 -905 778
-1452 80 -294 111 -513 118 -831 11 -441 -48 -841 -181 -1237 l-44 -133 55
-127 c30 -71 64 -148 75 -173 l20 -45 55 130 c95 225 168 468 222 743 58 289
88 693 71 936 -64 875 -340 1593 -865 2249 -236 294 -581 598 -931 819 -143
91 -447 244 -628 317 -133 54 -431 144 -593 179 l-93 20 -9 -37z"/>
<path d="M9236 14845 c-22 -8 -56 -30 -75 -51 -35 -35 -35 -36 -6 -18 27 17
29 17 16 1 -12 -15 -11 -17 18 -13 17 2 28 0 25 -5 -2 -4 12 -11 33 -14 21 -3
46 -11 57 -16 14 -8 17 -7 11 3 -3 7 0 5 9 -5 19 -24 12 -40 -23 -54 -36 -13
-53 -38 -95 -141 -26 -66 -35 -79 -46 -69 -10 10 -11 9 -5 -3 8 -13 7 -13 -8
-1 -14 11 -15 16 -5 29 11 13 11 14 -1 8 -9 -6 -25 5 -52 35 -21 24 -40 41
-43 39 -2 -3 -16 -34 -31 -70 -57 -133 -74 -182 -61 -171 9 8 18 6 32 -5 10
-8 12 -12 4 -8 -11 5 -12 4 -4 -5 6 -7 20 -13 32 -14 11 0 20 -6 19 -11 -1 -6
5 -10 13 -11 8 -1 14 -7 12 -15 -3 -11 0 -11 12 -1 9 7 13 18 9 24 -3 6 -1 7
5 3 13 -8 0 -46 -108 -306 -78 -188 -102 -239 -98 -205 2 15 -2 19 -16 17 -10
-2 -15 1 -12 6 3 5 -6 18 -19 28 -14 10 -25 24 -25 30 0 7 -6 14 -14 17 -8 3
-16 15 -18 27 -2 12 -28 -40 -65 -132 -83 -205 -78 -189 -59 -182 10 4 18 0
22 -10 3 -9 10 -13 15 -10 5 3 9 -6 9 -20 0 -16 7 -27 20 -31 11 -3 20 -12 20
-20 0 -7 6 -15 14 -17 12 -2 9 -19 -16 -80 -18 -45 -35 -75 -41 -71 -6 3 -7 1
-3 -6 7 -10 -32 -126 -53 -160 -13 -20 -40 -6 -55 29 -7 17 -16 27 -21 23 -4
-5 -5 7 -2 25 4 20 3 31 -3 27 -6 -4 -7 1 -3 11 5 14 2 16 -15 12 -19 -5 -20
-3 -12 12 6 10 10 22 10 27 -1 18 -35 -57 -121 -269 -50 -123 -148 -362 -219
-533 -70 -170 -190 -461 -265 -645 -76 -184 -209 -508 -297 -720 -88 -212
-218 -524 -288 -695 -71 -170 -183 -440 -250 -600 -67 -159 -153 -366 -191
-458 l-70 -168 25 -42 c28 -47 236 -311 241 -305 2 1 20 48 40 103 21 55 86
215 146 356 59 140 132 316 162 390 30 74 109 267 175 429 66 162 196 480 287
705 92 226 198 484 235 575 37 91 136 334 220 540 84 206 195 479 247 605 52
127 119 289 148 360 29 72 108 261 174 422 66 161 148 359 180 441 59 148 247
601 272 655 l12 27 879 -2 879 -3 60 -145 c189 -456 350 -848 449 -1095 160
-397 496 -1220 506 -1236 2 -4 77 20 166 52 90 32 164 59 166 59 2 0 0 10 -4
23 -9 31 -428 1076 -640 1597 -97 239 -227 560 -289 712 -62 153 -124 293
-138 312 -15 19 -50 46 -79 60 l-52 26 -840 -2 c-463 -1 -795 -4 -738 -5 56
-2 102 -8 102 -13 0 -4 3 -16 7 -26 4 -12 3 -15 -5 -10 -17 11 -15 -9 3 -24
13 -11 14 -10 9 3 -4 12 0 15 15 14 12 -1 21 -6 21 -12 0 -5 5 -3 10 5 8 13
10 13 10 -2 0 -9 9 -24 21 -32 13 -9 18 -19 14 -27 -5 -8 -4 -10 3 -5 7 4 12
2 12 -4 0 -6 5 -8 10 -5 6 4 7 11 3 18 -3 6 7 2 23 -10 16 -12 40 -23 54 -26
14 -2 -92 -5 -234 -6 -143 0 -257 0 -255 2 2 1 13 9 23 17 13 10 17 10 12 3
-5 -9 1 -13 21 -13 20 0 24 3 14 9 -7 5 -11 13 -7 19 3 6 1 14 -5 18 -7 4 -9
3 -6 -3 7 -11 -31 -25 -45 -17 -4 3 -8 13 -8 22 0 14 -2 14 -9 3 -5 -8 -6 -21
-3 -30 5 -14 3 -14 -11 -2 -9 7 -14 17 -11 22 8 14 -6 50 -17 44 -5 -4 -9 -1
-9 6 0 9 -3 9 -14 0 -12 -10 -13 -8 -9 8 3 12 1 21 -4 21 -5 0 -18 6 -28 14
-16 12 -7 14 80 15 55 1 101 4 104 6 2 3 -74 5 -170 5 -123 -1 -186 -5 -213
-15z m-606 -1715 c0 -5 -2 -10 -4 -10 -3 0 -8 5 -11 10 -3 6 -1 10 4 10 6 0
11 -4 11 -10z m-197 -314 c8 5 8 3 0 -6 -15 -16 -57 -25 -48 -10 3 5 0 7 -9 4
-12 -5 -13 -9 -3 -19 6 -7 18 -10 26 -7 10 4 12 -1 7 -19 -3 -13 -3 -18 0 -11
7 14 50 16 58 3 6 -10 -29 -101 -39 -101 -4 0 -4 4 0 9 3 5 1 12 -5 16 -5 3
-10 17 -10 31 0 15 -6 24 -16 24 -8 0 -12 5 -9 10 3 6 1 10 -4 10 -6 0 -11 8
-11 18 0 13 -2 14 -9 3 -6 -9 -11 -10 -15 -3 -4 6 6 24 21 40 23 25 29 28 41
16 7 -8 19 -11 25 -8z m-17 -180 c3 -8 1 -23 -6 -33 -10 -15 -10 -14 -5 10 4
19 2 26 -5 22 -5 -3 -10 -1 -10 4 0 16 20 13 26 -3z"/>
<path d="M8446 12733 c-6 -14 -5 -15 5 -6 7 7 10 15 7 18 -3 3 -9 -2 -12 -12z"/>
<path d="M7479 14803 c-13 -16 -12 -17 4 -4 16 13 21 21 13 21 -2 0 -10 -8
-17 -17z"/>
<path d="M7429 14763 l-24 -28 28 24 c15 14 27 26 27 28 0 8 -8 1 -31 -24z"/>
<path d="M9863 14761 c0 -11 5 -18 9 -15 4 3 5 11 1 19 -7 21 -12 19 -10 -4z"/>
<path d="M13690 14680 c-13 -8 -12 -10 3 -10 9 0 17 5 17 10 0 12 -1 12 -20 0z"/>
<path d="M7025 14378 l-40 -43 43 40 c39 36 47 45 39 45 -2 0 -21 -19 -42 -42z"/>
<path d="M6953 14301 c-13 -14 -33 -39 -45 -54 -13 -16 -35 -42 -50 -58 -14
-16 -23 -29 -18 -29 9 0 144 160 138 164 -1 2 -13 -9 -25 -23z"/>
<path d="M6515 13689 c-4 -6 -5 -12 -2 -15 2 -3 7 2 10 11 7 17 1 20 -8 4z"/>
<path d="M6475 13619 c-4 -6 -5 -12 -2 -15 2 -3 7 2 10 11 7 17 1 20 -8 4z"/>
<path d="M6425 13529 c-9 -17 -15 -33 -13 -35 3 -2 12 12 21 31 21 43 13 47
-8 4z"/>
<path d="M11045 13359 c4 -10 2 -20 -4 -24 -6 -3 -11 -1 -11 5 0 6 -5 8 -11 5
-6 -4 -8 -14 -5 -22 4 -9 2 -11 -6 -7 -6 4 -16 1 -22 -7 -26 -33 -45 -42 -62
-29 -19 16 -20 19 173 -450 371 -905 456 -1101 473 -1096 8 2 80 29 160 58
102 38 144 59 142 69 -7 32 -237 568 -240 559 -2 -6 -22 -10 -43 -10 -22 0
-38 4 -35 8 3 5 -1 9 -9 9 -11 0 -10 -5 2 -23 14 -22 13 -24 -11 -35 -32 -15
-34 -29 -3 -22 21 4 21 3 -3 -11 -14 -8 -26 -14 -26 -13 -4 5 -285 662 -354
827 -45 107 -88 202 -96 210 -13 13 -14 13 -9 -1z m482 -1045 c-3 -4 -1 -16 5
-28 10 -20 9 -20 -7 -4 -15 14 -14 38 2 38 4 0 3 -3 0 -6z"/>
<path d="M10256 12965 c-8 -19 -79 -191 -157 -382 -78 -192 -166 -406 -196
-478 -30 -71 -64 -155 -75 -185 -21 -58 -42 -90 -36 -56 1 10 -3 21 -11 24 -9
3 -11 0 -7 -9 4 -8 1 -6 -7 4 -16 20 -32 23 -21 5 4 -7 -2 -5 -14 5 -11 11
-26 16 -31 12 -6 -3 -11 1 -11 10 0 9 -4 14 -9 11 -4 -3 -5 9 -1 27 4 17 11
31 17 30 6 -1 9 8 8 20 0 12 3 30 8 40 5 10 7 21 4 23 -2 3 -16 -23 -30 -58
-14 -35 -74 -178 -132 -318 -170 -408 -286 -702 -280 -708 20 -20 389 71 413
102 5 6 40 90 77 186 37 96 157 400 267 675 110 275 209 524 220 553 11 30 23
50 28 45 4 -4 39 -87 78 -183 105 -259 349 -846 358 -863 8 -13 32 -7 162 43
85 32 156 61 159 64 6 6 10 -2 -148 369 -97 230 -115 265 -122 244 -6 -18 -24
-32 -62 -48 -40 -16 -52 -26 -48 -38 4 -9 4 -14 0 -11 -7 7 -367 849 -367 861
0 24 -21 15 -34 -16z"/>
<path d="M9176 12345 c-9 -26 -7 -32 5 -12 6 10 9 21 6 23 -2 3 -7 -2 -11 -11z"/>
<path d="M9154 12286 c-3 -14 -11 -23 -17 -19 -5 3 -8 2 -5 -3 7 -12 -10 -57
-19 -51 -5 3 -9 -7 -10 -21 0 -15 -4 -38 -9 -52 -13 -47 4 -15 40 74 20 49 35
91 32 93 -3 3 -8 -6 -12 -21z"/>
<path d="M6511 12094 c0 -11 3 -14 6 -6 3 7 2 16 -1 19 -3 4 -6 -2 -5 -13z"/>
<path d="M6502 12045 c0 -16 2 -22 5 -12 2 9 2 23 0 30 -3 6 -5 -1 -5 -18z"/>
<path d="M16168 12044 c-3 -11 1 -29 8 -39 15 -21 17 -8 5 35 -7 24 -7 24 -13
4z"/>
<path d="M6488 11967 c-3 -19 -2 -25 4 -19 6 6 8 18 6 28 -3 14 -5 12 -10 -9z"/>
<path d="M9700 11941 c0 -6 4 -13 10 -16 6 -3 7 1 4 9 -7 18 -14 21 -14 7z"/>
<path d="M8840 11936 c0 -2 7 -6 15 -10 8 -3 15 -1 15 4 0 6 -7 10 -15 10 -8
0 -15 -2 -15 -4z"/>
<path d="M8900 11936 c0 -2 8 -10 18 -17 15 -13 16 -12 3 4 -13 16 -21 21 -21
13z"/>
<path d="M8965 11910 c14 -15 12 -16 -15 -12 -18 2 -30 0 -30 -7 0 -6 -7 -8
-15 -5 -8 4 -12 10 -9 15 3 5 -5 9 -18 9 -15 0 -30 -10 -40 -28 -14 -24 -15
-29 -3 -29 8 0 12 3 10 7 -3 4 4 15 14 24 17 15 18 14 17 -28 -1 -24 2 -42 5
-40 12 7 30 -23 23 -39 -3 -8 0 -18 7 -23 8 -5 10 -3 4 6 -5 8 -4 11 3 6 6 -4
9 -13 6 -20 -3 -8 -1 -16 3 -19 5 -3 25 35 45 85 37 94 36 114 -3 114 -16 0
-17 -2 -4 -16z"/>
<path d="M6482 11885 c0 -16 2 -22 5 -12 2 9 2 23 0 30 -3 6 -5 -1 -5 -18z"/>
<path d="M14885 11880 c-3 -6 1 -7 9 -4 18 7 21 14 7 14 -6 0 -13 -4 -16 -10z"/>
<path d="M16180 11844 c0 -8 5 -12 10 -9 6 4 8 11 5 16 -9 14 -15 11 -15 -7z"/>
<path d="M6221 11834 c0 -11 3 -14 6 -6 3 7 2 16 -1 19 -3 4 -6 -2 -5 -13z"/>
<path d="M6470 11789 c0 -17 -4 -28 -10 -24 -5 3 -10 1 -10 -5 0 -6 -6 -17
-12 -24 -11 -11 -15 -11 -25 3 -11 13 -12 13 -8 1 4 -12 -4 -15 -40 -15 -36 0
-42 -2 -30 -11 32 -24 3 -54 -52 -54 -16 0 -34 -5 -40 -11 -9 -9 -14 -5 -19
15 -3 14 -4 33 0 41 3 8 0 15 -6 15 -19 0 -3 -538 21 -715 47 -342 139 -683
270 -994 53 -126 188 -401 213 -435 13 -16 20 -5 78 130 l63 148 -15 41 c-9
22 -44 105 -78 185 -204 479 -295 930 -295 1468 0 149 -1 272 -2 272 -2 0 -3
-14 -3 -31z"/>
<path d="M16208 11770 c-16 -18 -16 -19 3 -17 11 1 19 9 19 19 0 21 0 21 -22
-2z"/>
<path d="M16191 11701 c-1 -20 1 -21 14 -11 16 14 21 25 6 16 -5 -4 -12 0 -14
6 -3 7 -6 2 -6 -11z"/>
<path d="M8683 11542 c-8 -20 -42 -100 -75 -177 -33 -77 -71 -168 -84 -203
-13 -35 -75 -188 -138 -340 -63 -152 -167 -405 -231 -562 -304 -744 -336 -818
-334 -790 2 32 -2 39 -19 35 -15 -2 -18 2 -15 19 3 16 0 23 -11 23 -9 0 -16
-3 -16 -7 0 -10 -49 -30 -53 -22 -8 16 -1 57 9 55 8 -1 10 6 6 19 -3 12 -1 19
4 16 5 -4 10 10 11 30 2 25 0 32 -6 22 -11 -19 -181 -438 -276 -680 -40 -102
-84 -210 -99 -240 -14 -30 -26 -60 -26 -65 0 -13 150 -160 210 -206 l44 -34
346 -1 c190 0 417 2 505 5 152 6 162 7 207 34 65 38 91 76 139 203 119 317
296 768 320 816 11 21 28 42 39 48 12 6 136 33 278 61 591 114 956 209 1549
401 172 56 315 100 317 97 2 -2 28 -65 58 -139 30 -74 173 -418 319 -765 243
-580 268 -633 309 -676 76 -80 83 -81 612 -77 442 3 454 4 508 26 30 12 74 35
97 50 48 32 196 162 190 168 -1 2 -36 -8 -76 -22 -102 -35 -221 -42 -618 -36
-368 5 -353 2 -318 68 8 16 15 25 15 20 0 -4 14 6 30 24 17 18 30 36 30 40 0
10 -32 16 -110 19 -71 3 -89 13 -122 71 -10 19 -17 27 -14 18 3 -12 1 -15 -9
-11 -8 3 -13 9 -10 13 3 5 -3 11 -12 13 -13 3 -10 5 7 6 22 1 23 3 7 12 -9 6
-15 15 -11 20 3 6 -1 27 -10 47 -8 21 -79 190 -157 377 -77 187 -174 417 -214
510 -78 182 -145 345 -145 355 0 3 17 12 38 19 487 172 1489 569 1542 610 19
15 45 43 58 62 l23 33 -48 12 c-26 7 -62 18 -80 25 -30 12 -41 9 -175 -44 -79
-31 -237 -93 -353 -137 -115 -45 -259 -101 -320 -125 -176 -68 -180 -69 -209
-48 -14 10 -30 28 -37 41 -7 13 -19 20 -26 17 -8 -2 -12 -1 -8 4 3 5 -2 17
-11 25 -10 11 -11 16 -3 16 7 0 10 2 7 5 -3 3 -124 -38 -269 -91 -859 -313
-1615 -531 -2324 -669 -603 -117 -590 -112 -637 -200 -14 -28 -103 -243 -198
-480 -94 -236 -176 -441 -183 -454 -24 -49 -48 -51 -449 -49 l-373 3 60 34
c88 50 133 88 157 135 19 38 77 179 413 1011 64 160 120 294 124 298 4 4 79
19 167 32 437 67 919 169 1332 282 83 23 128 39 120 45 -10 6 -10 8 -1 8 9 0
10 7 3 25 -7 19 -6 25 4 25 8 0 17 7 20 16 9 24 7 31 -4 14 -8 -12 -10 -11
-10 6 0 12 7 27 15 34 13 11 14 10 8 -6 -6 -16 -5 -17 9 -6 11 9 18 10 23 2 3
-5 11 -10 16 -10 6 0 7 5 4 11 -4 6 2 5 14 -3 12 -7 21 -16 21 -20 0 -4 7 -5
15 -2 8 4 15 1 15 -5 0 -6 -5 -11 -12 -11 -6 0 -8 -3 -4 -7 4 -4 17 -8 29 -8
12 0 21 -5 20 -12 -2 -8 19 -6 67 8 38 10 72 19 75 19 4 0 4 4 1 9 -4 5 4 7
16 4 13 -3 20 -2 16 2 -4 5 -3 14 3 21 8 10 6 12 -12 9 -12 -3 -28 0 -36 6 -7
7 -13 8 -13 3 0 -5 -5 -2 -10 6 -7 11 -10 11 -10 2 0 -10 -5 -10 -20 -2 -11 6
-20 7 -20 3 0 -4 -7 1 -16 12 -8 11 -19 20 -24 20 -5 0 -15 8 -22 17 -11 15
-19 16 -58 6 -25 -6 -54 -19 -66 -29 -11 -11 -25 -19 -31 -19 -6 0 -13 -10
-16 -22 -4 -12 -9 -19 -13 -15 -12 12 5 37 32 47 54 21 16 18 -71 -6 -93 -25
-491 -118 -557 -130 -31 -5 -38 -3 -38 10 0 9 -6 16 -14 16 -8 0 -25 15 -37
33 -13 17 -31 39 -41 48 -10 9 -15 19 -11 23 9 9 21 11 -316 -54 -172 -33
-334 -62 -361 -66 l-49 -6 48 123 c27 68 99 246 159 395 142 347 156 384 137
360 -8 -11 -15 -23 -15 -28 0 -4 -5 -8 -11 -8 -12 0 -45 31 -42 39 1 3 -10 5
-25 4 -15 0 -21 1 -14 4 22 9 12 20 -19 21 -26 1 -33 -5 -46 -36z m1504 -748
c0 -9 -5 -10 -19 -3 -10 5 -18 12 -18 14 0 2 8 3 18 2 10 0 19 -7 19 -13z
m-207 -64 c0 -5 -2 -10 -4 -10 -3 0 -8 5 -11 10 -3 6 -1 10 4 10 6 0 11 -4 11
-10z m-2168 -1287 c-6 -2 -10 -9 -7 -13 3 -5 1 -11 -4 -14 -7 -5 -8 11 -2 32
1 1 7 2 14 1 9 0 9 -2 -1 -6z m4261 -658 c-3 -9 -8 -14 -10 -11 -3 3 -2 9 2
15 9 16 15 13 8 -4z"/>
<path d="M5923 11315 c0 -38 2 -53 4 -32 2 20 2 52 0 70 -2 17 -4 1 -4 -38z"/>
<path d="M5932 11180 c0 -19 2 -27 5 -17 2 9 2 25 0 35 -3 9 -5 1 -5 -18z"/>
<path d="M5562 10925 c0 -16 2 -22 5 -12 2 9 2 23 0 30 -3 6 -5 -1 -5 -18z"/>
<path d="M5571 10869 c-1 -14 8 -77 19 -140 51 -284 109 -507 205 -789 159
-463 391 -885 724 -1315 185 -239 439 -503 681 -706 414 -346 891 -631 1385
-824 469 -184 910 -283 1448 -326 193 -15 667 -7 847 15 584 71 1077 218 1596
475 373 184 692 394 1014 666 90 76 284 261 263 250 -8 -4 -13 0 -13 9 0 9 -5
16 -10 16 -6 0 -9 4 -8 9 2 5 -1 10 -7 11 -5 1 -19 7 -30 13 -21 12 -26 14
-47 16 -10 1 -10 3 -1 9 7 4 11 17 10 29 -1 17 -4 19 -14 11 -7 -6 -13 -18
-14 -27 0 -11 -2 -12 -6 -3 -4 11 -8 10 -22 -2 -122 -113 -387 -329 -516 -422
-241 -172 -723 -445 -733 -416 -2 7 -8 10 -13 6 -5 -3 -9 0 -9 6 0 6 -8 10
-17 8 -10 -2 -18 3 -19 10 -1 6 -3 15 -4 20 -1 4 -2 10 -1 14 0 4 -8 12 -20
18 -30 17 -58 47 -51 55 4 4 -11 -1 -33 -10 -624 -267 -1178 -387 -1790 -387
-623 -1 -1156 102 -1720 329 -394 159 -753 370 -1097 644 -682 545 -1155 1224
-1434 2064 -24 72 -43 115 -41 97 1 -20 -4 -37 -13 -43 -13 -9 -12 -10 3 -5
11 3 17 0 17 -9 0 -8 5 -15 11 -15 8 0 8 -4 0 -14 -8 -9 -8 -16 -2 -20 6 -4 4
-14 -7 -24 -11 -12 -20 -14 -24 -8 -10 15 -20 1 -20 -29 0 -20 -4 -25 -17 -19
-9 3 -22 7 -29 7 -7 0 -11 6 -8 13 3 8 0 11 -9 8 -8 -3 -13 -11 -12 -17 1 -6
-7 -13 -17 -15 -14 -3 -17 0 -13 13 4 9 3 14 -3 10 -6 -3 -10 -4 -10 -1 0 2
-16 60 -35 128 -19 68 -33 129 -30 135 2 7 1 13 -4 13 -8 0 -27 62 -37 120 -4
23 -9 39 -29 95 -4 11 -9 33 -11 49 -5 39 -23 59 -39 46 -7 -6 -17 -9 -21 -8
-5 2 -10 -1 -11 -7 -2 -5 6 -11 17 -11 39 -3 41 -4 35 -23 -3 -11 -1 -22 5
-26 5 -3 10 -14 10 -23 0 -12 -3 -13 -11 -5 -6 6 -18 9 -25 6 -8 -3 -14 -1
-14 5 0 6 5 12 12 14 24 8 -4 30 -30 23 -14 -3 -28 -2 -31 3 -3 6 -11 4 -19
-4 -11 -12 -7 -14 22 -14 27 0 34 -4 30 -14 -4 -12 -12 -13 -32 -5 -15 6 -24
7 -20 4 11 -12 -15 -32 -34 -27 -14 3 -17 12 -14 43 2 24 0 39 -7 39 -6 0 -2
7 9 15 16 13 16 14 2 9 -15 -5 -18 -1 -17 22 0 16 3 23 6 17 2 -7 9 -13 15
-13 6 0 7 7 4 15 -6 18 29 36 54 27 9 -3 7 2 -5 11 -10 8 -25 13 -31 10 -7 -2
-15 0 -19 6 -3 6 -2 11 3 11 5 0 12 11 14 24 4 22 2 23 -23 16 -22 -7 -31 -4
-43 13 l-15 22 0 -26z m429 -771 c-13 -5 -28 -7 -34 -4 -6 2 -3 5 7 5 9 1 17
5 17 11 0 5 7 7 17 3 14 -5 12 -8 -7 -15z"/>
<path d="M10245 10810 c-3 -6 1 -7 9 -4 18 7 21 14 7 14 -6 0 -13 -4 -16 -10z"/>
<path d="M10360 10750 c-9 -6 -10 -10 -3 -10 6 0 15 5 18 10 8 12 4 12 -15 0z"/>
<path d="M10027 10729 c7 -7 15 -10 18 -7 3 3 -2 9 -12 12 -14 6 -15 5 -6 -5z"/>
<path d="M5666 10705 c-11 -8 -15 -15 -9 -15 7 0 15 5 18 10 4 6 11 7 17 4 7
-4 8 -2 4 4 -9 14 -7 15 -30 -3z"/>
<path d="M6002 10680 c0 -14 2 -19 5 -12 2 6 2 18 0 25 -3 6 -5 1 -5 -13z"/>
<path d="M6011 10634 c0 -11 3 -14 6 -6 3 7 2 16 -1 19 -3 4 -6 -2 -5 -13z"/>
<path d="M6016 10585 c4 -8 8 -15 10 -15 2 0 4 7 4 15 0 8 -4 15 -10 15 -5 0
-7 -7 -4 -15z"/>
<path d="M6031 10544 c0 -11 3 -14 6 -6 3 7 2 16 -1 19 -3 4 -6 -2 -5 -13z"/>
<path d="M6051 10464 c0 -11 3 -14 6 -6 3 7 2 16 -1 19 -3 4 -6 -2 -5 -13z"/>
<path d="M6071 10390 c0 -8 4 -24 9 -35 5 -13 9 -14 9 -5 0 8 -4 24 -9 35 -5
13 -9 14 -9 5z"/>
<path d="M4791 10154 c0 -11 3 -14 6 -6 3 7 2 16 -1 19 -3 4 -6 -2 -5 -13z"/>
<path d="M6025 10150 c-3 -6 1 -7 9 -4 18 7 21 14 7 14 -6 0 -13 -4 -16 -10z"/>
<path d="M4521 9964 c0 -11 3 -14 6 -6 3 7 2 16 -1 19 -3 4 -6 -2 -5 -13z"/>
<path d="M4531 9924 c0 -11 3 -14 6 -6 3 7 2 16 -1 19 -3 4 -6 -2 -5 -13z"/>
<path d="M4848 9883 c-2 -18 -1 -30 3 -28 4 3 9 -6 11 -20 4 -16 1 -25 -8 -26
-8 -1 -20 -2 -26 -3 -7 -1 -12 -12 -11 -24 2 -12 -2 -22 -7 -22 -7 0 -6 -8 1
-22 15 -27 15 -28 -3 -39 -21 -14 -32 -10 -18 6 8 9 10 25 5 42 -7 26 -8 26
-15 8 -4 -11 -6 -23 -4 -26 2 -4 -4 -6 -14 -6 -33 0 -42 -3 -42 -14 0 -5 5 -7
12 -3 7 5 8 3 3 -5 -4 -7 -17 -10 -29 -7 -19 5 -20 4 -3 -8 19 -15 22 -32 7
-41 -6 -3 -7 1 -4 10 5 11 2 14 -10 9 -9 -3 -16 -1 -16 5 0 6 -5 11 -11 11 -6
0 -9 -7 -6 -15 4 -8 1 -17 -5 -21 -6 -4 -8 -3 -4 4 3 6 2 13 -3 16 -5 3 -12
-2 -16 -12 -6 -15 -8 -14 -20 8 -25 44 -16 5 29 -126 73 -212 150 -393 277
-645 381 -761 1043 -1468 1873 -2002 l89 -57 49 87 c27 49 62 111 78 139 l28
51 -151 99 c-302 196 -537 386 -801 644 -407 399 -676 766 -935 1279 -122 242
-236 537 -289 751 l-9 35 -5 -32z m43 -170 c13 -16 12 -17 -3 -4 -10 7 -18 15
-18 17 0 8 8 3 21 -13z m113 -305 c8 -18 16 -40 18 -48 2 -8 8 -18 13 -23 6
-4 2 -14 -10 -24 -17 -13 -17 -15 -2 -10 26 9 46 -36 25 -57 -14 -13 -17 -12
-28 9 -8 15 -19 22 -32 20 -16 -4 -18 -2 -8 10 10 12 9 15 -3 15 -8 0 -17 -5
-19 -11 -2 -7 -8 -6 -16 4 -10 12 -10 17 -1 23 8 5 9 3 4 -6 -5 -8 -3 -11 5
-8 14 4 22 48 9 48 -4 0 -10 8 -14 18 -5 13 -3 14 6 5 21 -21 38 -4 33 33 -5
43 1 43 20 2z m-39 -7 c-3 -6 -11 -8 -17 -5 -6 4 -5 9 3 15 16 10 23 4 14 -10z
m-25 -52 c0 -5 -4 -9 -8 -9 -5 0 -9 7 -9 15 0 8 4 12 9 9 4 -3 8 -9 8 -15z
m35 -99 c-3 -5 -10 -10 -16 -10 -5 0 -9 5 -9 10 0 6 7 10 16 10 8 0 12 -4 9
-10z m107 -32 c2 -20 8 -32 16 -30 9 2 9 -4 -3 -21 -8 -13 -12 -28 -8 -32 5
-5 0 -3 -9 4 -9 7 -23 9 -29 5 -7 -4 -9 -3 -5 4 3 6 2 13 -4 17 -5 3 -10 18
-10 32 0 21 4 24 21 20 15 -4 18 -2 10 7 -6 7 -8 16 -4 19 14 14 22 6 25 -25z
m-62 18 c0 -3 -4 -8 -10 -11 -5 -3 -10 -1 -10 4 0 6 5 11 10 11 6 0 10 -2 10
-4z m-204 -15 c-3 -5 1 -14 9 -21 8 -7 15 -20 16 -29 0 -10 2 -11 6 -4 3 10 8
9 19 -2 16 -16 11 -35 -9 -35 -7 0 -6 4 3 10 13 8 12 10 -2 10 -10 0 -18 -4
-18 -10 0 -23 -30 -8 -35 18 -4 15 -11 35 -16 46 -7 12 -7 16 0 12 5 -4 12 -2
16 4 3 5 8 10 11 10 3 0 3 -4 0 -9z m64 -5 c-7 -7 -14 -6 -21 1 -9 9 -7 12 9
10 14 -1 18 -5 12 -11z m114 -14 c3 -5 -1 -9 -9 -9 -8 0 -15 4 -15 9 0 4 4 8
9 8 6 0 12 -4 15 -8z m-54 -72 c0 -6 12 -8 28 -6 25 5 26 4 8 -9 -11 -8 -29
-13 -42 -11 -18 4 -21 0 -17 -17 3 -16 2 -18 -5 -8 -15 21 -22 -2 -8 -28 12
-21 14 -22 20 -5 6 16 9 16 17 4 8 -11 12 -12 16 -2 5 14 23 17 23 3 0 -5 -13
-14 -30 -21 -16 -7 -27 -17 -24 -22 3 -5 12 -3 22 4 12 10 12 8 -2 -14 -10
-16 -14 -33 -10 -40 6 -10 5 -10 -8 0 -14 12 -16 10 -11 -10 3 -15 -4 -9 -19
17 -40 68 -60 116 -54 131 3 8 2 12 -3 9 -5 -3 -12 -1 -15 4 -8 12 10 17 57
16 20 0 37 3 37 7 0 5 5 8 10 8 6 0 10 -5 10 -10z"/>
<path d="M5025 9281 c-3 -5 -2 -12 3 -15 5 -3 9 1 9 9 0 17 -3 19 -12 6z"/>
<path d="M4915 8990 c-3 -5 -1 -10 4 -10 6 0 11 5 11 10 0 6 -2 10 -4 10 -3 0
-8 -4 -11 -10z"/>
<path d="M8040 8176 c0 -10 289 -181 423 -251 468 -243 959 -391 1482 -446
178 -18 637 -16 820 4 621 69 1205 266 1705 577 216 134 223 120 -65 120
l-248 0 -121 -56 c-601 -279 -1212 -412 -1791 -390 -584 23 -1061 138 -1559
375 l-149 71 -248 0 c-137 0 -249 -2 -249 -4z"/>
<path d="M6816 7909 c28 -30 50 -63 50 -74 -1 -28 34 -62 61 -59 12 1 27 -4
34 -12 10 -12 9 -13 -5 -8 -10 4 -16 1 -16 -7 0 -11 -3 -11 -11 1 -9 13 -10
13 -6 0 2 -8 13 -15 24 -15 12 0 25 -4 29 -8 5 -4 1 -5 -9 -1 -10 3 -17 1 -17
-5 0 -10 13 -13 38 -10 4 1 6 5 5 10 -4 14 20 10 47 -7 34 -23 12 0 -56 58
-28 23 -89 76 -135 117 -74 66 -78 68 -33 20z m79 -88 c-3 -6 3 -14 12 -20 10
-6 13 -11 7 -11 -15 0 -36 25 -27 33 10 10 15 8 8 -2z"/>
<path d="M6793 7865 c0 -8 4 -12 9 -9 4 3 8 9 8 15 0 5 -4 9 -8 9 -5 0 -9 -7
-9 -15z"/>
<path d="M6580 7746 c0 -2 8 -10 18 -17 15 -13 16 -12 3 4 -13 16 -21 21 -21
13z"/>
<path d="M7100 7665 c13 -14 26 -25 28 -25 3 0 -5 11 -18 25 -13 14 -26 25
-28 25 -3 0 5 -11 18 -25z"/>
<path d="M6677 7669 c13 -16 147 -114 198 -144 l30 -17 -25 21 c-14 11 -29 21
-33 21 -5 0 -5 5 -2 10 3 6 -1 13 -10 16 -9 4 -15 15 -13 27 2 14 -3 23 -16
25 -13 3 -16 0 -11 -10 3 -7 -1 -4 -9 6 -9 11 -16 23 -16 27 0 4 -7 9 -15 13
-13 4 -14 2 -5 -14 6 -11 7 -20 1 -20 -5 0 -12 7 -15 16 -3 8 -11 12 -17 9 -5
-4 -20 1 -32 12 -14 11 -17 12 -10 2z"/>
<path d="M6905 7630 c-3 -5 -1 -10 4 -10 6 0 11 5 11 10 0 6 -2 10 -4 10 -3 0
-8 -4 -11 -10z"/>
<path d="M7140 7636 c0 -2 8 -10 18 -17 15 -13 16 -12 3 4 -13 16 -21 21 -21
13z"/>
<path d="M7211 7577 c2 -1 13 -9 24 -17 19 -14 19 -14 6 3 -7 9 -18 17 -24 17
-6 0 -8 -1 -6 -3z"/>
<path d="M7260 7540 c0 -4 7 -10 15 -14 8 -3 15 -11 15 -17 0 -7 -3 -9 -6 -6
-4 3 -16 1 -28 -5 -11 -7 -29 -11 -38 -9 -11 1 -18 -4 -18 -14 0 -9 -4 -14 -8
-11 -5 3 -16 -8 -26 -24 -28 -49 -48 -54 -100 -25 -78 43 -51 20 39 -34 108
-65 350 -187 478 -240 142 -59 447 -156 631 -202 164 -40 200 -46 156 -26
-350 159 -662 333 -962 535 -82 55 -148 96 -148 92z"/>
<path d="M7120 7513 c0 -2 6 -11 14 -19 19 -18 25 -18 22 3 -2 14 -36 30 -36
16z"/>
<path d="M6920 7496 c0 -3 9 -10 20 -16 11 -6 20 -8 20 -6 0 3 -9 10 -20 16
-11 6 -20 8 -20 6z"/>
<path d="M6980 7456 c0 -2 7 -7 16 -10 8 -3 12 -2 9 4 -6 10 -25 14 -25 6z"/>
<path d="M7118 7432 c4 -10 7 -12 10 -4 2 7 9 9 15 5 7 -3 8 -2 4 2 -14 16
-36 14 -29 -3z"/>
<path d="M7390 6895 c0 -3 64 -47 143 -99 622 -410 1358 -670 2187 -771 370
-45 699 -55 1020 -30 500 37 924 117 1390 261 240 75 612 237 845 368 119 68
337 207 332 212 -2 2 -50 -14 -107 -35 -290 -105 -741 -199 -1085 -226 -44 -4
-134 -22 -200 -40 -571 -161 -1011 -225 -1535 -225 -566 0 -998 68 -1645 258
-110 32 -223 57 -320 71 -303 44 -598 116 -907 220 -65 22 -118 38 -118 36z"/>
<path d="M4180 5504 c-152 -10 -299 -26 -429 -46 -124 -19 -144 -25 -152 -42
-4 -12 -33 -192 -64 -401 -31 -209 -83 -560 -116 -780 -33 -220 -80 -535 -104
-700 -25 -165 -48 -312 -51 -328 l-6 -27 294 2 293 3 51 330 c28 182 55 352
58 378 l7 48 86 -3 85 -3 108 -245 c59 -135 134 -303 167 -375 l60 -130 331
-3 c183 -1 332 0 332 3 0 3 -32 69 -71 148 -68 134 -243 498 -314 653 l-33 72
90 58 c299 194 449 561 376 919 -5 28 -26 83 -45 124 -85 179 -273 291 -555
330 -85 12 -316 21 -398 15z m199 -484 c97 -13 149 -36 185 -83 79 -103 43
-322 -68 -425 -70 -64 -136 -84 -307 -90 -85 -3 -149 -1 -152 5 -7 12 72 565
83 577 8 8 91 22 150 25 14 0 63 -4 109 -9z"/>
<path d="M10125 5496 c-576 -95 -970 -518 -1070 -1151 -22 -137 -22 -375 -1
-488 67 -354 284 -584 634 -672 196 -49 520 -34 694 34 30 11 25 -6 88 321 23
118 43 223 46 232 4 14 -11 11 -88 -17 -124 -44 -223 -59 -355 -53 -205 10
-330 92 -387 256 -62 174 -32 451 71 662 38 78 60 109 127 176 93 93 169 135
286 160 129 27 320 6 468 -53 35 -14 65 -23 67 -21 4 3 115 522 115 534 0 7
-143 48 -222 65 -121 26 -362 34 -473 15z"/>
<path d="M13465 5494 c-302 -30 -479 -54 -491 -67 -4 -3 -69 -429 -124 -802
-16 -110 -43 -292 -60 -405 -17 -113 -46 -311 -66 -440 -38 -259 -81 -530 -90
-572 l-6 -28 295 0 295 0 7 53 c4 28 24 170 46 314 21 144 39 267 39 272 0 6
69 10 178 10 206 -1 328 16 458 62 105 37 150 59 224 109 232 157 363 428 377
776 7 170 -9 255 -68 373 -86 172 -263 290 -499 331 -65 12 -439 22 -515 14z
m336 -490 c74 -22 132 -82 149 -154 27 -112 -7 -295 -72 -390 -40 -59 -76 -88
-151 -119 -56 -23 -75 -25 -199 -26 -75 0 -138 2 -141 5 -3 3 10 104 29 225
18 121 41 273 51 339 15 100 21 120 38 127 37 15 238 10 296 -7z"/>
<path d="M2007 5463 c-3 -5 -35 -82 -72 -173 -107 -263 -774 -1867 -839 -2018
-20 -46 -36 -86 -36 -88 0 -2 141 -4 313 -4 l313 0 98 245 99 245 323 0 323 0
5 -52 c3 -29 13 -123 21 -208 8 -85 18 -172 21 -192 l6 -38 300 0 300 0 -6 28
c-7 33 -96 714 -207 1577 -44 346 -83 642 -86 657 l-5 28 -434 0 c-238 0 -435
-3 -437 -7z m428 -891 c19 -211 35 -394 35 -407 l0 -25 -204 0 -204 0 43 113
c38 99 267 688 284 727 7 19 4 52 46 -408z"/>
<path d="M5340 5448 c0 -13 -16 -126 -35 -253 -19 -126 -35 -233 -35 -237 0
-5 117 -8 260 -8 241 0 260 -1 260 -17 0 -33 -151 -1055 -230 -1551 -16 -106
-30 -195 -30 -198 0 -2 133 -4 295 -4 162 0 295 4 295 9 0 4 20 138 44 297 25
159 59 386 76 504 18 118 52 348 76 510 24 162 49 330 55 373 l11 77 264 0
c145 0 264 3 264 8 0 4 16 111 35 237 19 127 35 240 35 253 l0 22 -820 0 -820
0 0 -22z"/>
<path d="M7095 5448 c-2 -13 -18 -113 -35 -223 -17 -110 -53 -344 -81 -520
-27 -176 -79 -509 -114 -741 -35 -232 -76 -492 -90 -578 -14 -86 -25 -168 -25
-181 l0 -25 757 2 756 3 33 210 c18 116 36 229 40 253 l6 42 -466 0 c-256 0
-466 3 -466 8 1 21 58 393 61 396 2 2 165 6 363 9 197 4 360 8 363 10 2 3 17
96 33 208 16 112 32 219 35 237 l6 32 -361 0 c-307 0 -360 2 -360 14 0 22 50
349 53 353 2 2 200 3 440 3 l436 1 5 27 c5 25 76 471 76 479 0 1 -328 3 -730
3 l-730 0 -5 -22z"/>
<path d="M11411 5448 c-12 -32 -163 -391 -321 -768 -116 -277 -276 -651 -541
-1267 -43 -100 -81 -193 -85 -207 l-6 -26 294 0 294 0 95 243 96 242 329 0
328 0 28 -230 c15 -126 27 -236 28 -242 0 -10 66 -13 295 -13 274 0 295 1 295
18 0 19 -65 475 -134 942 -25 168 -75 519 -111 780 -35 261 -68 492 -71 513
l-6 37 -399 0 -399 0 -9 -22z m360 -589 c9 -126 50 -536 65 -661 l7 -58 -207
0 c-147 0 -206 3 -206 11 0 7 48 136 106 288 110 285 201 525 210 550 9 28 14
2 25 -130z"/>
<path d="M14821 5403 c-6 -38 -47 -311 -91 -608 -81 -542 -164 -1083 -220
-1422 -17 -100 -30 -184 -30 -187 0 -3 133 -6 295 -6 l294 0 6 33 c16 92 71
461 129 857 36 245 97 659 136 920 38 260 70 475 70 477 0 2 -130 3 -289 3
l-289 0 -11 -67z"/>
<path d="M15530 5447 c0 -19 -40 -294 -66 -454 l-7 -43 277 0 277 0 -6 -32
c-5 -33 -63 -413 -155 -1013 -68 -450 -101 -665 -107 -697 l-5 -28 296 0 c163
0 296 3 296 8 0 4 14 97 30 207 17 110 60 403 96 650 35 248 79 551 97 675
l33 225 266 3 266 2 6 28 c10 48 76 461 76 477 0 13 -99 15 -835 15 l-835 0 0
-23z"/>
<path d="M17617 5436 c-9 -19 -71 -164 -137 -323 -229 -543 -623 -1458 -726
-1688 -57 -126 -104 -233 -104 -237 0 -5 136 -8 303 -8 l303 0 94 245 94 245
326 0 327 0 6 -42 c3 -24 16 -134 28 -245 l23 -203 292 0 c160 0 293 2 296 5
2 3 -8 94 -23 202 -45 316 -104 743 -194 1403 -47 338 -87 630 -90 648 l-6 32
-398 0 -397 0 -17 -34z m394 -906 c16 -173 33 -332 36 -352 l6 -38 -207 0
c-117 0 -206 4 -206 9 0 5 54 152 121 328 66 175 136 360 155 412 19 52 38 99
42 105 4 6 10 -25 15 -69 4 -44 21 -222 38 -395z"/>
<path d="M19128 5143 c-108 -753 -200 -1376 -243 -1651 -25 -161 -45 -298 -45
-303 0 -5 272 -9 695 -9 548 0 697 3 700 13 7 19 76 509 73 512 -2 2 -182 5
-401 6 -219 2 -400 6 -402 9 -2 4 9 96 26 206 33 224 219 1530 219 1538 0 3
-129 6 -288 6 l-287 0 -47 -327z"/>
<path d="M15347 2733 c-51 -71 -51 -73 -25 -73 14 1 49 25 88 60 l65 60 -47 0
c-44 0 -48 -3 -81 -47z"/>
<path d="M13705 2591 c-79 -20 -141 -77 -181 -166 -65 -140 -92 -402 -49 -474
35 -59 67 -75 155 -80 66 -3 87 1 126 19 55 27 107 94 129 164 21 70 20 76
-18 76 -31 0 -35 -3 -46 -42 -30 -102 -83 -148 -167 -148 -63 0 -99 25 -114
78 -15 56 -12 105 14 232 35 174 88 260 171 276 81 15 135 -24 143 -106 l5
-50 40 0 40 0 -6 60 c-6 69 -32 117 -77 143 -35 21 -120 30 -165 18z"/>
<path d="M14465 2591 c-109 -29 -175 -113 -175 -225 0 -78 26 -105 145 -151
52 -21 107 -46 121 -58 24 -18 26 -25 22 -78 -7 -92 -62 -139 -163 -139 -50 0
-60 4 -87 30 -27 27 -30 36 -26 80 l3 50 -37 0 c-34 0 -38 -2 -44 -35 -14 -78
18 -150 83 -180 77 -37 222 -15 286 43 26 23 63 98 71 145 18 97 -20 148 -148
196 -107 40 -146 71 -146 114 0 69 54 132 122 143 75 13 128 -21 128 -81 0
-34 1 -35 40 -35 l40 0 0 45 c0 58 -16 91 -57 116 -37 23 -128 33 -178 20z"/>
<path d="M15285 2593 c-149 -35 -215 -130 -260 -372 -22 -122 -20 -207 8 -261
34 -67 64 -84 158 -89 70 -3 86 0 134 24 95 46 150 147 185 335 44 233 -6 348
-155 363 -27 3 -59 3 -70 0z m90 -77 c68 -29 85 -98 61 -246 -40 -247 -94
-330 -216 -330 -128 0 -156 86 -106 323 36 169 74 233 155 257 40 13 69 11
106 -4z"/>
<path d="M16673 2589 c-60 -11 -96 -32 -142 -85 -67 -76 -123 -265 -124 -419
0 -135 39 -195 140 -214 139 -26 252 53 297 207 l15 52 -39 0 c-36 0 -40 -3
-49 -35 -15 -56 -59 -123 -91 -140 -33 -17 -112 -20 -141 -5 -56 30 -66 134
-29 303 26 121 52 182 93 225 85 88 217 49 217 -64 l0 -44 41 0 41 0 -4 65
c-4 71 -24 108 -74 136 -37 21 -98 29 -151 18z"/>
<path d="M11955 2558 c-13 -62 -115 -643 -115 -659 0 -15 7 -19 35 -19 19 0
35 1 35 3 0 16 51 281 55 288 4 5 50 9 103 9 116 0 161 11 206 50 70 62 103
212 64 286 -29 53 -67 64 -232 64 -143 0 -146 0 -151 -22z m258 -49 c20 -5 44
-21 53 -35 33 -50 -6 -172 -66 -208 -19 -11 -63 -19 -124 -23 -91 -6 -96 -5
-96 14 0 21 37 231 45 251 6 15 134 16 188 1z"/>
<path d="M12499 2578 c-1 -2 -29 -158 -63 -348 l-62 -345 34 -3 c19 -2 36 -2
38 0 2 2 16 72 31 156 l27 152 76 0 c92 0 133 -13 148 -45 7 -16 9 -66 5 -144
l-6 -121 47 0 c45 0 47 1 40 23 -8 23 -7 160 2 189 10 34 -16 98 -46 117 -31
18 -30 31 1 31 27 0 80 50 100 95 12 25 19 64 19 102 0 74 -26 113 -88 131
-32 10 -300 18 -303 10z m243 -68 c46 -13 68 -43 68 -93 0 -56 -35 -113 -85
-137 -49 -24 -205 -30 -205 -7 0 6 9 61 20 121 11 60 20 113 20 118 0 12 138
10 182 -2z"/>
<path d="M13065 2568 c-2 -7 -29 -157 -59 -333 -31 -176 -58 -328 -60 -337 -4
-17 10 -18 184 -18 l188 0 4 35 4 35 -148 0 c-81 0 -148 3 -147 8 0 4 10 61
23 127 l22 120 139 5 139 5 7 32 6 31 -123 7 c-67 4 -127 4 -132 1 -6 -3 -13
-3 -16 2 -6 10 27 203 38 220 5 8 53 12 152 12 118 0 144 3 144 14 0 8 3 21 6
30 5 14 -14 16 -180 16 -141 0 -188 -3 -191 -12z"/>
<path d="M14105 2558 c-11 -50 -115 -648 -115 -662 0 -12 10 -16 35 -16 40 0
33 -20 74 210 57 318 81 457 81 473 0 13 -9 17 -35 17 -28 0 -36 -4 -40 -22z"/>
<path d="M14875 2558 c-12 -52 -115 -643 -115 -660 0 -14 8 -18 34 -18 34 0
35 1 45 53 19 91 111 619 111 633 0 9 -12 14 -35 14 -28 0 -36 -4 -40 -22z"/>
<path d="M15636 2248 c-33 -183 -61 -341 -64 -350 -4 -15 2 -18 37 -18 26 0
41 5 41 13 0 6 18 111 39 232 21 121 44 253 51 293 7 40 14 71 16 69 3 -3 34
-123 69 -268 92 -379 76 -339 140 -339 50 0 54 2 59 28 3 15 17 95 31 177 15
83 39 221 56 308 16 88 29 165 29 173 0 9 -12 14 -35 14 -28 0 -36 -4 -40 -22
-14 -65 -95 -538 -95 -556 0 -62 -22 6 -90 278 l-75 300 -55 0 -55 0 -59 -332z"/>
<path d="M17055 2568 c-2 -7 -29 -157 -60 -333 -31 -176 -58 -328 -61 -337 -4
-15 1 -18 34 -18 46 0 40 -15 72 178 l23 132 77 0 c88 0 136 -13 151 -42 7
-14 8 -62 4 -144 l-7 -124 52 0 c44 0 51 2 41 14 -8 10 -11 55 -9 144 3 118 1
132 -17 152 -11 12 -29 26 -40 30 -17 6 -15 10 20 24 52 22 74 43 96 91 24 52
25 152 3 184 -33 47 -86 61 -237 61 -101 0 -139 -3 -142 -12z m247 -58 c47
-13 68 -43 68 -95 0 -57 -29 -105 -80 -132 -35 -19 -59 -23 -127 -23 -62 0
-83 3 -83 13 0 22 39 228 45 238 8 12 131 12 177 -1z"/>
<path d="M17566 2258 c-32 -178 -60 -335 -63 -350 l-5 -28 191 0 c182 0 191 1
191 19 0 11 3 26 6 35 5 14 -11 16 -146 16 l-152 0 5 28 c3 15 13 73 23 130
l17 102 138 0 c133 0 137 1 143 23 14 54 16 53 -126 56 -73 1 -134 4 -136 5
-1 2 6 52 16 112 l18 109 144 0 c152 0 157 1 159 48 1 16 -14 17 -182 17
l-183 0 -58 -322z"/>
<path d="M18212 2473 c-28 -60 -100 -213 -161 -341 -61 -129 -111 -238 -111
-243 0 -5 17 -9 38 -9 l39 0 43 100 43 100 122 0 122 0 6 -37 c3 -21 9 -66 13
-100 l7 -63 38 0 c27 0 39 4 39 14 0 8 -14 124 -30 258 -17 134 -35 285 -41
336 l-11 92 -53 0 -52 0 -51 -107z m112 -126 c9 -92 16 -177 16 -188 0 -18 -8
-19 -100 -19 -59 0 -100 4 -100 10 0 5 32 81 71 167 39 87 75 169 80 182 5 13
11 22 13 20 2 -2 11 -80 20 -172z"/>
<path d="M18546 2564 c-16 -41 -10 -44 89 -44 52 0 95 -4 95 -9 0 -5 -25 -144
-55 -310 -30 -166 -55 -306 -55 -312 0 -6 16 -9 37 -7 l38 3 56 306 c31 168
59 311 63 317 5 8 40 12 96 12 71 0 89 3 94 16 17 44 18 44 -223 44 -199 0
-230 -2 -235 -16z"/>
<path d="M19105 2568 c-4 -13 -125 -672 -125 -683 0 -3 17 -5 38 -5 l39 0 61
343 c34 188 62 345 62 350 0 12 -70 8 -75 -5z"/>
<path d="M19274 2548 c3 -18 19 -148 36 -288 16 -140 33 -282 38 -315 l7 -60
48 0 48 0 148 315 c81 173 155 330 165 348 l17 32 -41 0 -41 0 -38 -82 c-134
-288 -225 -486 -232 -507 -5 -13 -11 -22 -13 -20 -2 2 -16 126 -30 274 -37
369 -29 335 -78 335 -40 0 -40 0 -34 -32z"/>
<path d="M19893 2387 c-51 -105 -126 -263 -168 -350 l-75 -158 46 3 46 3 41
98 41 97 122 0 122 0 6 -27 c3 -16 8 -53 11 -83 10 -88 11 -90 57 -90 34 0 40
3 35 19 -2 10 -24 167 -48 350 l-43 331 -51 0 -50 -1 -92 -192z m166 -209 l1
-38 -100 0 c-55 0 -100 4 -100 9 0 7 31 80 145 336 l18 40 18 -155 c10 -85 18
-172 18 -192z"/>
<path d="M650 2370 l0 -70 5365 0 5365 0 0 70 0 70 -5365 0 -5365 0 0 -70z"/>
<path d="M1073 2182 l-423 -2 0 -70 0 -70 5365 0 5365 0 0 70 0 70 -332 1
c-1023 2 -9621 4 -9975 1z"/>
</g>
</svg>
